<?xml version="1.0" encoding="utf-8"?>
<svg viewBox="234.134 189.682 141.662 173.993" xmlns="http://www.w3.org/2000/svg">
  <path d="M 371.272 249.002 C 370.262 249.785 352.444 259.826 352.444 282.151 C 352.444 307.974 375.117 317.11 375.796 317.336 C 375.691 317.893 372.194 329.848 363.841 342.028 C 356.394 352.747 348.615 363.449 336.783 363.449 C 324.95 363.449 321.905 356.576 308.245 356.576 C 294.933 356.576 290.2 363.675 279.376 363.675 C 268.553 363.675 261.001 353.757 252.318 341.576 C 242.26 327.272 234.134 305.051 234.134 283.961 C 234.134 250.133 256.129 232.193 277.776 232.193 C 289.278 232.193 298.866 239.745 306.087 239.745 C 312.961 239.745 323.68 231.74 336.765 231.74 C 341.725 231.74 359.543 232.193 371.272 249.002 Z M 330.553 217.419 C 335.965 210.998 339.793 202.089 339.793 193.179 C 339.793 191.944 339.689 190.691 339.462 189.682 C 330.657 190.012 320.182 195.546 313.865 202.872 C 308.906 208.51 304.277 217.419 304.277 226.45 C 304.277 227.808 304.504 229.165 304.608 229.6 C 305.165 229.704 306.07 229.826 306.975 229.826 C 314.875 229.826 324.811 224.536 330.553 217.419 Z" style="fill: rgb(255, 255, 255);"/>
</svg>