<svg xmlns="http://www.w3.org/2000/svg" viewBox="0 0 100 70.7625"><defs><style>.cls-1{fill:#000000;}</style></defs><title>youtube</title><g id="Layer_2" data-name="Layer 2"><g id="Layer_1-2" data-name="Layer 1"><path class="cls-1" d="M79.2313,0H20.7687A20.7687,20.7687,0,0,0,0,20.7687V49.9938A20.7687,20.7687,0,0,0,20.7687,70.7625H79.2313A20.7687,20.7687,0,0,0,100,49.9938V20.7687A20.7687,20.7687,0,0,0,79.2313,0ZM65.1855,36.8032,37.8407,49.845a1.0977,1.0977,0,0,1-1.57-.9909V21.9553a1.0977,1.0977,0,0,1,1.5939-.9792l27.3448,13.857A1.0977,1.0977,0,0,1,65.1855,36.8032Z"/></g></g></svg>